<svg id="Capa_1" enable-background="new 0 0 512 512" height="512" viewBox="0 0 512 512" width="512" xmlns="http://www.w3.org/2000/svg"><g><path d="m183.507 135.431c-10.759-28.58-16.507-58.558-16.507-89.431 0-11.043.868-22.931 2.243-33.699-10.71 3.673-21.072 9.066-30.987 14.244-3.096 46.002 4.618 91.188 23.009 133.259 2.907-3.459 8.007-10.251 22.242-24.373z"/><path d="m366.149 38.526c-29.954-19.9-64.896-34.318-102.548-37.923-3.889 14.082-6.601 30.128-6.601 45.397 0 10.651 1.368 21.125 3.376 31.469 32.958-18.501 68.645-31.526 105.773-38.943z"/><path d="m233.606 94.234c-4.03-15.74-6.606-31.828-6.606-48.234 0-15.313 1.957-31.661 5.301-46-10.604.456-21.035 2.031-31.214 3.909-2.477 13.437-4.087 28.116-4.087 42.091 0 23.287 3.576 46.022 10.521 67.87 8.425-6.973 17.132-13.51 26.085-19.636z"/><path d="m108.192 406.467c9.855 7.326 20.264 13.903 31.262 19.565-1.365-11.602-2.454-23.256-2.454-35.032 0-99.829 49.6-192.876 132.671-248.892 46.097-31.097 98.454-47.618 152.58-50.204-7.341-9.842-15.368-19.114-24.186-27.625-170.811 20.384-298.058 165.205-289.873 342.188z"/><path d="m140.686 186.797c-22.196-44.246-33.201-91.981-33.138-140.782-10.588 7.928-20.448 16.723-29.48 26.354 3.818 50.53 18.898 99.229 44.198 143.606 5.586-9.972 11.817-19.662 18.42-29.178z"/><path d="m228.487 366.938c-.908 7.908-1.487 15.914-1.487 24.062 0 20.402 3.675 40.389 9.45 59.718 1.862.046 3.677.282 5.55.282 44.095 0 85.139-12.935 119.896-34.938-46.998-7.586-92.124-24.124-133.409-49.124z"/><path d="m454.822 298.42c-10.838 1.394-21.729 2.58-32.822 2.58-52.513 0-102.323-15.842-145.076-45.606-6.425 7.571-12.23 15.65-17.545 24.084 53.458 37.324 116.721 54.952 181.857 50.722 5.333-10.155 9.834-20.79 13.586-31.78z"/><path d="m421.616 360.945c-63.107-.053-124.037-18.748-176.633-54.62-4.114 9.291-7.48 18.953-10.225 28.89 48.792 31.707 103.879 50.099 161.221 54.401 9.351-8.806 17.897-18.397 25.637-28.671z"/><path d="m466.509 235.695c-14.445 3.371-29.315 5.305-44.509 5.305-34.596 0-68.057-9.542-97.771-26.862-8.974 5.742-17.452 12.145-25.43 19.146 36.686 24.276 78.705 37.716 123.201 37.716 13.956 0 27.629-1.628 41.094-4.118 1.877-10.17 2.961-20.592 3.415-31.187z"/><path d="m356.406 197.137c20.607 8.974 42.818 13.863 65.594 13.863 15.121 0 29.702-2.734 43.901-6.663-.694-7.225-1.767-14.335-3.131-21.348-8.521-1.046-17.071-1.989-25.77-1.989-28.548 0-55.759 5.773-80.594 16.137z"/><path d="m167 391c0 16.467 2.034 32.679 4.979 48.701 10.351 3.4 21.046 5.956 31.994 7.831-4.488-18.42-6.973-37.37-6.973-56.532 0-132.334 107.666-240 240-240 5.863 0 11.57.923 17.368 1.34-3.719-10.692-8.112-21.063-13.334-30.956-54.899-.82-108.27 14.374-154.59 45.597-74.796 50.435-119.444 134.18-119.444 224.019z"/><path d="m450 422h-44.02c-13.616 11.468-28.414 21.546-44.235 30h88.255c8.276 0 15 6.724 15 15s-6.724 15-15 15h-103v30h103c24.814 0 45-20.186 45-45s-20.186-45-45-45z"/><path d="m106.542 247.938c-28.092-43.713-46.388-91.818-54.461-142.068-1.575 2.481-2.737 5.22-4.219 7.764-1.225 62.338 13.863 122.728 43.931 176.087 4.14-14.169 8.835-28.178 14.749-41.783z"/><path d="m82.383 331.192c-30.813-45.201-51.665-95.901-60.384-149.562-2.939 14.398-4.999 29.108-4.999 44.37 0 59.028 23.024 112.652 60.337 152.827.505-16.08 2.444-31.928 5.046-47.635z"/></g></svg>